# xmcd
#
# Track frame offsets:
# 150
# 26025
# 44361
# 64334
# 90454
# 117294
# 150094
# 174310
# 237245
#
# Disc length: 3369 seconds
#
#
# Revision: 0
# Processed by: cddbd v1.5.1PL2 Copyright (c) Steve Scherf et al.
# Submitted via: FreeRIP 2.91 
#
DISCID=660d2709
DTITLE=Pat The White - Reviver
DYEAR=2006
DGENRE=Blues
TTITLE0=Tuff Enuff (Kim Richardson)
TTITLE1=Nothing Else To Do
TTITLE2=More Bad News
TTITLE3=Promised Land
TTITLE4=Kiss From Your Sisters
TTITLE5=Ain't That Lovin' You (Bob Walsh)
TTITLE6=Night Eyes
TTITLE7=Whipping Post
TTITLE8=Looking Out The Window
EXTD=
EXTT0=
EXTT1=
EXTT2=
EXTT3=
EXTT4=
EXTT5=
EXTT6=
EXTT7=
EXTT8=
PLAYORDER=
